<svg xmlns="http://www.w3.org/2000/svg" viewBox="0 0 1000 443" role="img" aria-label="bendemen logo"><path d="M 913,300 L 913,305 L 918,305 L 918,300 Z M 913,263 L 913,293 L 918,293 L 918,263 Z M 886,263 L 886,268 L 891,268 L 892,269 L 892,305 L 898,305 L 898,269 L 899,268 L 904,268 L 904,263 Z M 861,263 L 861,305 L 866,305 L 866,291 L 867,290 L 870,290 L 871,291 L 873,305 L 879,305 L 878,304 L 878,299 L 877,298 L 877,293 L 876,292 L 876,280 L 877,279 L 877,272 L 878,271 L 878,265 L 879,263 L 873,263 L 873,269 L 872,270 L 871,282 L 869,284 L 867,284 L 866,283 L 866,263 Z M 836,263 L 834,265 L 834,305 L 840,305 L 840,291 L 841,290 L 844,290 L 845,291 L 845,305 L 850,305 L 850,265 L 848,263 Z M 841,268 L 844,268 L 845,269 L 845,283 L 844,284 L 841,284 L 840,283 L 840,269 Z M 809,263 L 808,264 L 808,305 L 813,305 L 813,291 L 814,290 L 817,290 L 818,291 L 818,305 L 823,305 L 824,304 L 824,266 L 822,263 Z M 814,268 L 817,268 L 818,269 L 818,283 L 817,284 L 814,284 L 813,283 L 813,269 Z M 772,264 L 772,305 L 777,305 L 777,269 L 778,268 L 781,268 L 782,269 L 782,305 L 787,305 L 787,269 L 788,268 L 790,268 L 791,269 L 791,304 L 792,305 L 797,305 L 797,265 L 795,263 L 786,263 L 785,264 L 783,264 L 782,263 L 774,263 Z M 747,263 L 747,305 L 763,305 L 763,300 L 762,299 L 753,299 L 752,298 L 752,291 L 753,290 L 758,290 L 758,285 L 757,284 L 753,284 L 752,283 L 752,269 L 753,268 L 763,268 L 763,263 Z M 723,263 L 721,265 L 721,303 L 723,305 L 735,305 L 737,303 L 737,285 L 736,284 L 730,284 L 730,290 L 732,291 L 732,298 L 731,299 L 727,299 L 726,298 L 726,269 L 727,268 L 731,268 L 732,269 L 732,275 L 737,275 L 737,265 L 735,263 Z M 678,263 L 676,265 L 676,302 L 677,304 L 679,305 L 690,305 L 692,303 L 692,284 L 686,284 L 685,285 L 685,290 L 687,291 L 687,298 L 686,299 L 683,299 L 682,298 L 682,269 L 683,268 L 686,268 L 687,269 L 687,275 L 692,275 L 692,264 L 691,263 Z M 651,263 L 651,305 L 656,305 L 656,291 L 657,290 L 659,291 L 661,305 L 666,305 L 666,298 L 665,297 L 665,289 L 666,288 L 666,264 L 665,263 Z M 657,268 L 660,268 L 661,269 L 661,283 L 660,284 L 657,284 L 656,283 L 656,269 Z M 626,263 L 624,265 L 624,303 L 626,305 L 638,305 L 640,303 L 640,265 L 638,263 Z M 630,268 L 633,268 L 634,269 L 634,298 L 633,299 L 630,299 L 629,298 L 629,269 Z M 599,263 L 599,268 L 608,268 L 609,269 L 609,271 L 606,277 L 606,279 L 604,283 L 604,286 L 599,299 L 599,305 L 615,305 L 615,300 L 606,300 L 605,299 L 608,291 L 608,288 L 610,285 L 610,283 L 613,276 L 613,273 L 615,269 L 615,263 Z M 555,263 L 555,268 L 560,268 L 561,269 L 561,305 L 566,305 L 566,269 L 567,268 L 572,268 L 572,263 Z M 532,263 L 532,305 L 548,305 L 548,300 L 547,299 L 538,299 L 537,298 L 537,291 L 538,290 L 542,290 L 543,289 L 543,285 L 542,284 L 538,284 L 537,283 L 537,269 L 538,268 L 548,268 L 548,263 Z M 498,263 L 496,265 L 496,305 L 501,305 L 502,304 L 502,269 L 503,268 L 505,268 L 506,269 L 506,305 L 511,305 L 511,269 L 512,268 L 515,268 L 516,269 L 516,305 L 521,305 L 521,264 L 519,263 L 511,263 L 510,264 L 508,264 L 507,263 Z M 780,158 L 779,159 L 779,236 L 780,237 L 800,237 L 801,236 L 801,215 L 802,214 L 803,215 L 803,220 L 805,224 L 805,228 L 808,232 L 810,233 L 823,233 L 826,231 L 828,227 L 829,217 L 831,213 L 832,214 L 832,236 L 833,237 L 853,237 L 854,235 L 854,218 L 853,217 L 853,178 L 854,177 L 854,168 L 853,167 L 853,159 L 852,158 L 830,158 L 827,160 L 823,166 L 823,169 L 821,173 L 820,183 L 818,187 L 818,193 L 816,194 L 815,193 L 815,189 L 813,186 L 813,179 L 811,175 L 811,170 L 809,167 L 808,163 L 803,158 Z M 933,157 L 932,159 L 932,237 L 933,238 L 954,238 L 955,237 L 955,199 L 956,198 L 958,200 L 958,204 L 963,215 L 963,218 L 965,221 L 965,224 L 967,226 L 967,228 L 970,234 L 973,237 L 975,237 L 976,238 L 998,238 L 999,236 L 999,159 L 998,157 L 978,157 L 976,159 L 976,194 L 975,195 L 973,193 L 973,190 L 971,188 L 971,185 L 969,182 L 969,179 L 966,174 L 966,171 L 964,168 L 964,165 L 958,158 L 955,158 L 954,157 Z M 861,157 L 860,158 L 860,216 L 861,217 L 862,223 L 865,227 L 865,229 L 873,237 L 877,237 L 878,238 L 925,238 L 926,237 L 926,218 L 925,217 L 887,217 L 884,214 L 882,210 L 883,208 L 910,208 L 911,207 L 911,188 L 909,187 L 883,187 L 882,186 L 882,180 L 883,179 L 924,179 L 926,178 L 926,158 L 925,157 Z M 707,157 L 707,218 L 708,219 L 709,224 L 711,226 L 714,232 L 720,237 L 723,237 L 724,238 L 772,238 L 773,237 L 773,218 L 772,217 L 734,217 L 729,212 L 729,209 L 730,208 L 757,208 L 757,188 L 756,187 L 730,187 L 729,186 L 729,180 L 730,179 L 771,179 L 773,178 L 773,158 L 772,157 Z M 635,157 L 634,158 L 634,237 L 635,238 L 676,238 L 677,237 L 681,237 L 683,235 L 685,235 L 691,229 L 695,223 L 695,221 L 697,219 L 697,217 L 698,216 L 698,211 L 700,207 L 700,188 L 698,185 L 698,180 L 697,179 L 697,177 L 691,166 L 687,163 L 687,162 L 681,158 L 677,158 L 676,157 Z M 657,179 L 669,179 L 674,183 L 674,185 L 676,187 L 676,190 L 678,193 L 678,203 L 676,206 L 676,208 L 674,212 L 671,215 L 667,217 L 658,217 L 656,215 L 656,180 Z M 562,157 L 561,158 L 561,237 L 562,238 L 583,238 L 584,236 L 584,200 L 585,199 L 587,202 L 588,208 L 592,216 L 592,219 L 594,222 L 594,225 L 596,227 L 596,230 L 602,237 L 604,237 L 605,238 L 627,238 L 627,162 L 628,161 L 627,157 L 606,157 L 605,158 L 605,196 L 604,197 L 602,194 L 602,192 L 600,190 L 600,186 L 596,178 L 595,172 L 593,169 L 593,167 L 591,163 L 586,158 L 584,158 L 583,157 Z M 489,157 L 489,159 L 488,160 L 488,212 L 489,213 L 489,219 L 492,226 L 494,228 L 494,230 L 499,235 L 502,237 L 505,237 L 506,238 L 554,238 L 555,237 L 555,218 L 554,217 L 516,217 L 511,212 L 511,209 L 512,208 L 538,208 L 539,207 L 539,188 L 538,187 L 512,187 L 511,186 L 511,180 L 512,179 L 553,179 L 555,177 L 555,159 L 554,157 Z M 417,157 L 416,158 L 416,237 L 470,237 L 473,235 L 480,226 L 480,222 L 482,220 L 482,205 L 480,202 L 480,199 L 479,198 L 480,197 L 480,192 L 482,190 L 482,175 L 480,172 L 480,169 L 478,165 L 474,161 L 474,160 L 471,158 L 468,158 L 467,157 Z M 438,209 L 439,208 L 458,208 L 460,210 L 460,215 L 458,217 L 439,217 L 438,216 Z M 438,178 L 439,177 L 457,177 L 460,180 L 460,185 L 458,187 L 439,187 L 438,186 Z M 369,57 L 216,57 L 215,59 L 215,425 L 216,426 L 244,412 L 244,92 L 246,90 L 269,90 L 270,91 L 270,397 L 271,398 L 273,398 L 279,394 L 281,394 L 291,389 L 293,387 L 295,387 L 299,385 L 299,91 L 300,90 L 324,90 L 325,91 L 325,370 L 327,371 L 333,368 L 335,366 L 337,366 L 354,357 L 354,86 L 357,80 L 359,78 L 361,73 L 366,66 L 369,60 Z M 118,57 L 117,58 L 117,407 L 123,410 L 125,412 L 127,412 L 129,414 L 131,414 L 135,417 L 137,417 L 139,419 L 141,419 L 143,421 L 149,424 L 151,424 L 153,426 L 155,426 L 157,428 L 171,435 L 173,435 L 175,437 L 183,441 L 186,441 L 187,440 L 189,440 L 191,438 L 193,438 L 197,435 L 199,435 L 202,432 L 202,58 L 201,57 Z M 147,90 L 171,90 L 172,91 L 172,400 L 171,401 L 169,401 L 164,397 L 162,397 L 156,394 L 154,392 L 152,392 L 150,390 L 148,390 L 146,388 L 146,91 Z M 1,57 L 2,62 L 6,66 L 12,77 L 18,85 L 18,357 L 32,364 L 34,366 L 36,366 L 42,370 L 47,371 L 52,375 L 56,377 L 58,377 L 60,379 L 66,382 L 68,382 L 70,384 L 76,387 L 78,387 L 83,391 L 85,391 L 91,394 L 93,396 L 95,396 L 97,398 L 101,399 L 102,398 L 102,226 L 101,224 L 96,221 L 92,217 L 88,215 L 84,211 L 84,210 L 93,202 L 97,200 L 102,195 L 102,58 L 101,57 Z M 48,227 L 63,227 L 68,230 L 73,235 L 73,350 L 72,351 L 66,348 L 64,348 L 62,346 L 51,341 L 47,338 L 47,228 Z M 48,90 L 72,90 L 73,91 L 73,186 L 64,194 L 48,194 L 47,193 L 47,91 Z M 0,2 L 0,40 L 1,41 L 369,41 L 370,40 L 370,3 L 368,1 L 349,1 L 348,2 L 348,23 L 346,25 L 284,25 L 283,24 L 283,2 L 281,1 L 262,1 L 261,2 L 261,24 L 260,25 L 198,25 L 196,23 L 196,2 L 195,1 L 175,1 L 174,2 L 174,23 L 172,25 L 110,25 L 109,24 L 109,3 L 108,1 L 88,1 L 87,2 L 87,23 L 85,25 L 23,25 L 22,24 L 22,2 L 21,1 L 1,1 Z" fill="#000" fill-rule="evenodd"/></svg>