<svg xmlns="http://www.w3.org/2000/svg" viewBox="0 0 1000 442" role="img" aria-label="bendemenstudios logo"><path d="M 824,273 L 821,276 L 821,312 L 824,315 L 838,315 L 839,316 L 839,336 L 838,337 L 831,337 L 830,336 L 830,326 L 829,325 L 822,325 L 821,326 L 821,343 L 826,347 L 844,347 L 849,342 L 849,310 L 845,306 L 831,306 L 830,305 L 830,283 L 831,282 L 838,282 L 839,283 L 839,294 L 848,294 L 849,293 L 849,277 L 845,273 Z M 779,273 L 776,276 L 776,343 L 780,347 L 798,347 L 803,343 L 803,276 L 800,273 Z M 786,282 L 793,282 L 794,283 L 794,336 L 793,337 L 786,337 L 785,336 L 785,283 Z M 748,273 L 748,346 L 749,347 L 756,347 L 757,346 L 757,273 Z M 701,273 L 701,346 L 702,347 L 724,347 L 729,343 L 729,277 L 725,273 Z M 711,282 L 718,282 L 719,283 L 719,336 L 718,337 L 711,337 L 710,336 L 710,283 Z M 655,273 L 655,343 L 659,347 L 678,347 L 682,343 L 682,273 L 673,273 L 673,336 L 672,337 L 665,337 L 664,336 L 664,273 Z M 609,273 L 609,282 L 618,282 L 619,283 L 619,346 L 620,347 L 627,347 L 628,346 L 628,283 L 629,282 L 639,282 L 639,273 Z M 569,273 L 566,276 L 566,312 L 569,315 L 584,315 L 585,316 L 585,336 L 584,337 L 576,337 L 575,336 L 575,326 L 574,325 L 567,325 L 566,326 L 566,343 L 571,347 L 589,347 L 591,346 L 594,342 L 594,310 L 590,306 L 576,306 L 575,305 L 575,283 L 576,282 L 584,282 L 585,283 L 585,294 L 594,294 L 594,277 L 590,273 Z M 780,158 L 779,159 L 779,236 L 781,237 L 799,237 L 801,236 L 801,215 L 802,214 L 803,215 L 803,219 L 805,223 L 805,228 L 807,231 L 810,233 L 822,233 L 824,232 L 828,227 L 829,218 L 831,213 L 832,214 L 832,235 L 834,237 L 852,237 L 854,235 L 854,164 L 853,163 L 854,160 L 853,158 L 829,158 L 823,165 L 822,174 L 820,179 L 820,184 L 818,187 L 818,192 L 816,194 L 815,193 L 815,188 L 813,185 L 813,178 L 811,174 L 811,169 L 807,161 L 804,158 Z M 934,156 L 932,159 L 932,235 L 934,238 L 954,238 L 955,237 L 955,198 L 956,197 L 958,199 L 958,203 L 962,211 L 962,213 L 963,214 L 965,222 L 967,225 L 967,227 L 969,230 L 969,232 L 973,236 L 977,238 L 998,238 L 999,236 L 999,158 L 997,156 L 979,156 L 977,157 L 976,159 L 976,194 L 975,195 L 973,192 L 973,190 L 971,187 L 970,181 L 966,173 L 966,170 L 964,167 L 964,164 L 958,158 L 954,156 Z M 860,157 L 860,216 L 861,217 L 862,222 L 865,226 L 865,228 L 867,231 L 868,231 L 869,233 L 873,236 L 878,237 L 879,238 L 925,238 L 926,237 L 926,217 L 925,216 L 887,216 L 884,213 L 882,209 L 883,208 L 909,208 L 911,207 L 911,188 L 910,187 L 884,187 L 882,185 L 882,179 L 883,178 L 925,178 L 926,177 L 926,157 L 925,156 L 862,156 Z M 708,156 L 707,157 L 707,218 L 713,230 L 718,235 L 726,238 L 772,238 L 773,237 L 773,217 L 772,216 L 733,216 L 729,211 L 729,209 L 730,208 L 756,208 L 757,207 L 757,187 L 730,187 L 729,186 L 729,179 L 730,178 L 772,178 L 773,177 L 773,157 L 772,156 Z M 635,156 L 634,157 L 634,237 L 635,238 L 675,238 L 676,237 L 680,237 L 684,235 L 688,231 L 689,231 L 689,230 L 691,229 L 697,218 L 698,211 L 700,207 L 700,187 L 698,184 L 698,179 L 697,178 L 697,176 L 692,167 L 685,160 L 675,156 Z M 658,178 L 668,178 L 671,180 L 676,186 L 676,189 L 678,192 L 678,202 L 676,205 L 676,208 L 674,211 L 668,216 L 657,216 L 656,215 L 656,180 Z M 562,156 L 561,158 L 561,237 L 562,238 L 582,238 L 584,235 L 584,200 L 585,199 L 587,201 L 587,205 L 589,208 L 590,213 L 592,215 L 592,219 L 594,222 L 596,229 L 598,233 L 601,236 L 606,238 L 626,238 L 627,237 L 627,161 L 628,160 L 627,159 L 627,157 L 626,156 L 607,156 L 605,157 L 605,195 L 604,196 L 602,194 L 602,191 L 600,189 L 600,186 L 599,185 L 598,180 L 596,177 L 595,172 L 593,169 L 593,166 L 587,158 L 585,158 L 582,156 Z M 490,156 L 488,159 L 488,213 L 489,214 L 490,222 L 492,224 L 492,226 L 494,229 L 501,236 L 503,237 L 507,237 L 508,238 L 553,238 L 555,236 L 555,218 L 554,216 L 515,216 L 512,213 L 511,211 L 511,209 L 512,208 L 537,208 L 539,207 L 539,188 L 538,187 L 512,187 L 511,186 L 511,179 L 512,178 L 554,178 L 555,176 L 555,158 L 553,156 Z M 416,157 L 416,236 L 417,237 L 469,237 L 472,235 L 478,229 L 480,225 L 480,222 L 482,219 L 482,205 L 480,202 L 480,198 L 479,197 L 480,196 L 480,192 L 482,189 L 482,175 L 480,172 L 480,168 L 478,166 L 477,163 L 472,158 L 469,158 L 465,156 L 418,156 Z M 438,209 L 440,207 L 456,207 L 460,210 L 460,214 L 457,217 L 439,217 L 438,216 Z M 438,178 L 439,177 L 458,177 L 460,180 L 460,184 L 457,187 L 439,187 L 438,186 Z M 368,56 L 217,56 L 215,58 L 215,424 L 216,425 L 222,422 L 224,422 L 226,420 L 228,420 L 230,418 L 232,418 L 236,415 L 238,415 L 240,413 L 242,413 L 244,411 L 244,91 L 245,90 L 269,90 L 270,91 L 270,396 L 271,397 L 274,397 L 278,394 L 280,394 L 282,392 L 284,392 L 290,388 L 294,387 L 299,384 L 299,91 L 300,90 L 324,90 L 325,91 L 325,369 L 326,370 L 328,370 L 332,367 L 334,367 L 336,365 L 338,365 L 342,362 L 344,362 L 346,360 L 348,360 L 352,358 L 354,356 L 354,85 L 357,81 L 357,79 L 361,74 L 364,67 L 368,62 L 368,60 L 369,59 L 369,57 Z M 119,56 L 117,57 L 117,407 L 122,409 L 124,411 L 126,411 L 128,413 L 130,413 L 132,415 L 138,418 L 140,418 L 142,420 L 144,420 L 146,422 L 148,422 L 150,424 L 154,425 L 156,427 L 158,427 L 160,429 L 162,429 L 164,431 L 170,434 L 172,434 L 177,438 L 179,438 L 185,441 L 190,438 L 192,438 L 197,434 L 199,434 L 202,431 L 202,59 L 201,57 L 199,56 Z M 146,90 L 171,90 L 172,91 L 172,399 L 171,400 L 169,400 L 155,393 L 153,391 L 151,391 L 147,389 L 145,387 L 145,91 Z M 2,56 L 0,58 L 17,84 L 17,355 L 18,357 L 29,362 L 31,364 L 33,364 L 39,367 L 41,369 L 43,369 L 45,371 L 47,371 L 49,373 L 55,376 L 57,376 L 59,378 L 65,381 L 67,381 L 69,383 L 80,388 L 82,390 L 84,390 L 86,392 L 89,392 L 92,395 L 94,395 L 96,397 L 102,398 L 102,226 L 99,222 L 95,220 L 90,215 L 86,213 L 83,210 L 87,206 L 101,196 L 102,194 L 102,58 L 100,56 Z M 47,226 L 63,226 L 73,235 L 73,349 L 71,351 L 69,349 L 65,347 L 63,347 L 61,345 L 55,342 L 53,342 L 46,337 L 46,227 Z M 47,90 L 72,90 L 73,91 L 73,185 L 68,190 L 62,194 L 48,194 L 46,192 L 46,91 Z M 0,1 L 0,40 L 1,41 L 369,41 L 370,39 L 370,3 L 369,1 L 348,1 L 348,23 L 347,24 L 284,24 L 283,23 L 283,2 L 282,1 L 262,1 L 261,2 L 261,23 L 260,24 L 197,24 L 196,23 L 196,2 L 194,0 L 176,0 L 174,2 L 174,23 L 173,24 L 109,24 L 108,23 L 108,1 L 107,0 L 88,0 L 86,3 L 86,23 L 85,24 L 23,24 L 22,23 L 22,2 L 21,0 L 2,0 Z" fill="#000" fill-rule="evenodd"/></svg>