<svg xmlns="http://www.w3.org/2000/svg" viewBox="0 0 1412 624" role="img" aria-label="Bendemen logo"><path d="M 5 0 L 5 28 L 54 28 L 54 0 L 78 0 L 78 28 L 160 28 L 160 0 L 184 0 L 184 28 L 265 28 L 265 0 L 290 0 L 290 28 L 371 28 L 371 0 L 396 0 L 396 28 L 477 28 L 477 0 L 501 0 L 501 28 L 581 28 L 581 0 L 606 0 L 606 28 L 687 28 L 687 0 L 712 0 L 712 28 L 793 28 L 793 0 L 818 0 L 818 28 L 899 28 L 899 0 L 923 0 L 923 28 L 1004 28 L 1004 0 L 1029 0 L 1029 28 L 1110 28 L 1110 0 L 1134 0 L 1134 28 L 1215 28 L 1215 0 L 1240 0 L 1240 28 L 1320 28 L 1320 0 L 1345 0 L 1345 28 L 1412 28 L 1412 624 L 5 624 Z" fill="#000" fill-rule="evenodd"/></svg>